<svg xmlns="http://www.w3.org/2000/svg" width="166.88317" height="18.92368" viewBox="0 0 166.88317 18.92368">
  <defs>
    <style>
      .cls-1 {
        fill: #003299;
      }
    </style>
  </defs>
  <g id="SV">
    <g>
      <g>
        <g>
          <polygon class="cls-1" points="0 0.116 0 6.715 4.884 6.715 4.884 5.494 1.657 5.494 1.657 3.895 4.68 3.895 4.68 2.703 1.657 2.703 1.657 1.308 4.825 1.308 4.825 0.116 0 0.116"/>
          <path class="cls-1" d="M14.04016.11627V3.86613c0,2.18015-1.51157,2.965-3.31382,2.965-1.91854,0-3.31383-.87206-3.31383-2.93594V.11627H9.06942v3.808a1.48172,1.48172,0,0,0,1.62785,1.51157,1.53712,1.53712,0,0,0,1.686-1.62785V.11627Z"/>
          <path class="cls-1" d="M18.42953,2.81966h.87206c.4651,0,.90113-.20348.90113-.75578,0-.49417-.31976-.75579-.95927-.75579h-.81392ZM19.73762.11627a1.98989,1.98989,0,0,1,2.18015,1.91854,1.72276,1.72276,0,0,1-1.13368,1.62784c.69765.34883.87206,1.16275,1.80226,3.08128H20.78409c-.69765-1.42436-.95927-2.70339-1.86039-2.70339h-.4651V6.74393H16.80169V.11627Z"/>
          <path class="cls-1" d="M27.99312,1.3953a1.977,1.977,0,0,0-2.122,2.0348,1.947,1.947,0,0,0,2.122,2.03481A1.95346,1.95346,0,0,0,30.08606,3.4301a1.95345,1.95345,0,0,0-2.09294-2.0348m0,5.40677a3.54954,3.54954,0,0,1-3.808-3.401A3.54724,3.54724,0,0,1,27.99312,0a3.51983,3.51983,0,0,1,3.77893,3.401,3.523,3.523,0,0,1-3.77893,3.401"/>
          <path class="cls-1" d="M35.987,2.84873h.75579c.75578,0,1.0174-.26162,1.0174-.75579,0-.58137-.31976-.75578-1.22088-.75578h-.58138L35.987,2.84873ZM37.29509.11627a2.01069,2.01069,0,0,1,2.18015,1.97667,2.01557,2.01557,0,0,1-2.18015,2.00574H35.987V6.74393H34.33009V.11627Z"/>
          <polygon class="cls-1" points="46.888 6.715 41.975 6.715 41.975 0.116 46.801 0.116 46.801 1.308 43.632 1.308 43.632 2.703 46.655 2.703 46.655 3.895 43.632 3.895 43.632 5.494 46.888 5.494 46.888 6.715"/>
          <path class="cls-1" d="M52.38172,1.686l-.95926,2.58711h2.0348Zm3.89521,5.02888H54.50374l-.55231-1.30809h-2.965l-.49417,1.30809H48.74815L51.42246.08721H53.341Z"/>
          <polygon class="cls-1" points="65.056 6.715 63.689 6.715 60.027 2.471 60.027 6.715 58.37 6.715 58.37 0.116 59.881 0.116 63.399 4.157 63.399 0.116 65.056 0.116 65.056 6.715"/>
        </g>
        <g>
          <path class="cls-1" d="M78.04936,6.16256a5.28414,5.28414,0,0,1-2.58711.66858c-2.58711,0-3.86614-1.686-3.86614-3.401C71.59611,1.65691,73.02048,0,75.57852,0a4.85809,4.85809,0,0,1,2.41269.58137v1.4825a4.61651,4.61651,0,0,0-2.29642-.69764A2.14667,2.14667,0,0,0,73.2821,3.372a2.13028,2.13028,0,0,0,2.35456,2.03481A5.09517,5.09517,0,0,0,78.04936,4.68V6.16256Z"/>
          <polygon class="cls-1" points="85.578 6.715 80.695 6.715 80.695 0.116 85.491 0.116 85.491 1.308 82.352 1.308 82.352 2.703 85.375 2.703 85.375 3.895 82.352 3.895 82.352 5.494 85.578 5.494 85.578 6.715"/>
          <polygon class="cls-1" points="94.851 6.715 93.485 6.715 89.822 2.471 89.822 6.715 88.165 6.715 88.165 0.116 89.677 0.116 93.194 4.157 93.194 0.116 94.851 0.116 94.851 6.715"/>
          <polygon class="cls-1" points="103.659 1.308 101.246 1.308 101.246 6.715 99.589 6.715 99.589 1.308 97.206 1.308 97.206 0.116 103.659 0.116 103.659 1.308"/>
          <path class="cls-1" d="M107.61218,2.81966h.87206c.4651,0,.90113-.20348.90113-.75578,0-.49417-.31976-.75579-.95927-.75579h-.81391V2.81966ZM108.92027.11627a1.98989,1.98989,0,0,1,2.18015,1.91854,1.72276,1.72276,0,0,1-1.13368,1.62784c.69765.34883.87206,1.16275,1.80226,3.08128h-1.80226c-.69765-1.42436-.95926-2.70339-1.86039-2.70339h-.4651V6.74393h-1.65692V.11627Z"/>
          <path class="cls-1" d="M116.79787,1.686l-.95926,2.58711h2.03481ZM120.664,6.71486h-1.77319l-.5523-1.30809h-2.965l-.49417,1.30809h-1.74412L115.80953.08721h1.91854Z"/>
          <polygon class="cls-1" points="127.786 6.715 122.757 6.715 122.757 0.116 124.385 0.116 124.385 5.494 127.786 5.494 127.786 6.715"/>
        </g>
        <g>
          <path class="cls-1" d="M135.6925,5.494h.9302c.90113,0,1.24995-.23255,1.24995-.81393,0-.49416-.436-.75578-1.0174-.75578H135.6925Zm0-2.76153h.87206a.737.737,0,0,0,.843-.72671c0-.34883-.23254-.69765-.843-.69765h-.87206ZM136.91339.11627c1.56971,0,2.18015.9302,2.18015,1.65692a1.47193,1.47193,0,0,1-.90113,1.30809,1.71119,1.71119,0,0,1,1.42436,1.686c0,.75579-.407,1.9476-2.35456,1.9476h-3.22662V.11627Z"/>
          <path class="cls-1" d="M145.08168,1.686l-.95926,2.58711h2.0348Zm3.86613,5.02888h-1.77319l-.5523-1.30809h-2.93593l-.49418,1.30809h-1.74412L144.12242.08721H146.041Z"/>
          <polygon class="cls-1" points="157.727 6.715 156.36 6.715 152.698 2.471 152.698 6.715 151.041 6.715 151.041 0.116 152.552 0.116 156.099 4.157 156.099 0.116 157.727 0.116 157.727 6.715"/>
          <polygon class="cls-1" points="163.947 3.198 166.883 6.715 164.819 6.715 162.203 3.605 162.203 6.715 160.546 6.715 160.546 0.116 162.203 0.116 162.203 3.11 162.203 3.11 164.296 0.116 166.098 0.116 163.947 3.198"/>
        </g>
      </g>
      <g>
        <polygon class="cls-1" points="60.474 14.52 58.381 14.52 58.381 16.024 60.43 16.024 60.43 16.656 58.381 16.656 58.381 18.204 60.561 18.204 60.561 18.858 57.683 18.858 57.683 13.866 60.474 13.866 60.474 14.52"/>
        <path class="cls-1" d="M66.46913,16.87434a1.9223,1.9223,0,0,1-2.202,2.02754A1.89479,1.89479,0,0,1,62.196,16.96154V13.86573h.71945v2.9432c0,.56684.0654.80666.30522,1.02467a1.44588,1.44588,0,0,0,1.06828.436,1.72108,1.72108,0,0,0,1.17729-.39242,1.39662,1.39662,0,0,0,.30522-1.06828v-2.9432H66.491l-.02182,3.00861Z"/>
        <path class="cls-1" d="M69.17251,16.04588h.45782c.763,0,.98107-.39243.98107-.80665-.0218-.47964-.28342-.76306-.98107-.76306h-.45782Zm.52324-2.18015c1.00286,0,1.63511.52324,1.63511,1.3953a1.27184,1.27184,0,0,1-.82846,1.22088,4.30228,4.30228,0,0,1,1.11188,1.37349,10.20674,10.20674,0,0,0,.67584.98107h-.85027l-.654-1.02467c-.654-1.02467-.95927-1.13368-1.30809-1.13368h-.30523v2.15835h-.71944V13.86573Z"/>
        <path class="cls-1" d="M76.12719,18.26963a1.89722,1.89722,0,1,0-1.94034-1.89673,1.86828,1.86828,0,0,0,1.94034,1.89673m0-4.4475A2.553,2.553,0,1,1,73.4674,16.3729a2.51487,2.51487,0,0,1,2.65979-2.55077"/>
        <path class="cls-1" d="M83.01645,14.95581a1.7416,1.7416,0,0,0-1.17728-.52324c-.45783,0-.78485.23982-.78485.58864,0,.95927,2.15835.93746,2.15835,2.529a1.329,1.329,0,0,1-1.3953,1.3517,2.23457,2.23457,0,0,1-1.3953-.45784v-.89386a1.65343,1.65343,0,0,0,1.30809.71945c.545,0,.80666-.34882.80666-.61044,0-1.02467-2.15835-1.13368-2.15835-2.50717a1.33453,1.33453,0,0,1,1.5043-1.32989,1.9161,1.9161,0,0,1,1.11187.34882l.02181.78486Z"/>
        <polygon class="cls-1" points="87.987 13.866 88.837 13.866 86.984 16.22 86.984 18.858 86.287 18.858 86.287 16.198 84.434 13.866 85.284 13.866 86.614 15.588 87.987 13.866"/>
        <path class="cls-1" d="M92.60911,14.95581a1.7416,1.7416,0,0,0-1.17728-.52324c-.45783,0-.78485.23982-.78485.58864,0,.95927,2.13654.93746,2.13654,2.529a1.329,1.329,0,0,1-1.3953,1.3517,2.27929,2.27929,0,0,1-1.3953-.45784v-.89386a1.65341,1.65341,0,0,0,1.30809.71945c.545,0,.80666-.34882.80666-.61044,0-1.02467-2.13655-1.13368-2.13655-2.50717a1.33454,1.33454,0,0,1,1.50431-1.32989,1.91612,1.91612,0,0,1,1.11187.34882l.02181.78486Z"/>
        <polygon class="cls-1" points="98.299 14.52 96.599 14.52 96.599 18.858 95.858 18.858 95.858 14.52 94.157 14.52 94.157 13.866 98.299 13.866 98.299 14.52"/>
        <polygon class="cls-1" points="102.79 14.52 100.676 14.52 100.676 16.024 102.703 16.024 102.703 16.656 100.676 16.656 100.676 18.204 102.834 18.204 102.834 18.858 99.956 18.858 99.956 13.866 102.79 13.866 102.79 14.52"/>
        <polygon class="cls-1" points="108.546 13.866 106.889 15.915 105.232 13.866 104.578 13.866 104.578 18.858 105.276 18.858 105.276 14.978 105.298 14.978 106.824 16.896 106.954 16.896 108.459 14.978 108.481 14.978 108.481 18.858 109.2 18.858 109.2 13.866 108.546 13.866"/>
      </g>
    </g>
  </g>
</svg>
